<svg xmlns="http://www.w3.org/2000/svg" width="390" height="844" viewBox="0 0 390 844"><rect width="390" height="844" fill="#181818"/><rect width="390" height="44" x="0" y="800" fill="#1f1f1f"/><circle cx="78" cy="822" r="14" fill="#E5769720"/><circle cx="195" cy="822" r="14" fill="#2a2a2a"/><circle cx="312" cy="822" r="14" fill="#2a2a2a"/><rect width="100" height="28" x="24" y="60" fill="#333" rx="6"/><rect width="366" height="260" x="12" y="108" fill="#2a2a2a" rx="16"/><rect width="260" height="20" x="28" y="296" fill="#333" rx="5"/><rect width="120" height="14" x="28" y="324" fill="#2a2a2a" rx="4"/><circle cx="44" cy="340" r="14" fill="#E5769740"/><rect width="80" height="12" x="64" y="333" fill="#444" rx="4"/><rect width="175" height="200" x="12" y="384" fill="#1f2a2f" rx="12"/><rect width="175" height="200" x="203" y="384" fill="#2a1f2a" rx="12"/><rect width="100" height="12" x="28" y="404" fill="#444" rx="4"/><rect width="100" height="12" x="218" y="404" fill="#444" rx="4"/><rect width="80" height="32" x="24" y="596" fill="#E57697" rx="16"/><rect width="90" height="32" x="112" y="596" fill="#2a2a2a" rx="16"/><rect width="70" height="32" x="210" y="596" fill="#2a2a2a" rx="16"/><rect width="80" height="32" x="288" y="596" fill="#2a2a2a" rx="16"/></svg>