<svg xmlns="http://www.w3.org/2000/svg" width="390" height="844" viewBox="0 0 390 844"><rect width="390" height="844" fill="#181818"/><rect width="140" height="28" x="24" y="60" fill="#333" rx="6"/><rect width="200" height="16" x="24" y="96" fill="#2a2a2a" rx="4"/><rect width="366" height="160" x="12" y="136" fill="#E5769720" rx="16"/><rect width="100" height="18" x="28" y="156" fill="#E57697" rx="5"/><rect width="160" height="14" x="28" y="182" fill="rgba(255,255,255,0.3)" rx="4"/><rect width="60" height="12" x="28" y="204" fill="rgba(255,255,255,0.2)" rx="4"/><rect width="176" height="160" x="12" y="308" fill="#7c6af720" rx="16"/><rect width="176" height="160" x="202" y="308" fill="#6af7c820" rx="16"/><rect width="80" height="14" x="28" y="328" fill="rgba(255,255,255,0.4)" rx="4"/><rect width="80" height="14" x="218" y="328" fill="rgba(255,255,255,0.4)" rx="4"/><rect width="176" height="160" x="12" y="480" fill="#f7c86a20" rx="16"/><rect width="176" height="160" x="202" y="480" fill="#f76a6a20" rx="16"/><rect width="176" height="160" x="12" y="652" fill="#6ab5f720" rx="16"/><rect width="176" height="160" x="202" y="652" fill="#c86af720" rx="16"/></svg>