<svg xmlns="http://www.w3.org/2000/svg" width="390" height="844" viewBox="0 0 390 844"><defs><linearGradient id="g5" x1="0" x2="1" y1="0" y2="1"><stop offset="0%" stop-color="#1a1a2e"/><stop offset="100%" stop-color="#181818"/></linearGradient></defs><rect width="390" height="844" fill="url(#g5)"/><circle cx="195" cy="120" r="56" fill="#E5769730"/><rect width="100" height="20" x="145" y="188" fill="#444" rx="5"/><rect width="60" height="14" x="165" y="216" fill="#333" rx="4"/><rect width="80" height="56" x="60" y="250" fill="#2a2a2a" rx="12"/><rect width="80" height="56" x="155" y="250" fill="#2a2a2a" rx="12"/><rect width="80" height="56" x="250" y="250" fill="#2a2a2a" rx="12"/><rect width="52" height="16" x="74" y="263" fill="#E57697" rx="4"/><rect width="52" height="16" x="169" y="263" fill="#E57697" rx="4"/><rect width="52" height="16" x="264" y="263" fill="#E57697" rx="4"/><rect width="342" height="48" x="24" y="326" fill="#E57697" rx="24"/><rect width="130" height="14" x="130" y="343" fill="rgba(255,255,255,0.8)" rx="4"/><rect width="118" height="128" x="12" y="392" fill="#2a2a2a" rx="10"/><rect width="118" height="128" x="136" y="392" fill="#2a2a2a" rx="10"/><rect width="118" height="128" x="260" y="392" fill="#E5769715" rx="10"/><rect width="118" height="128" x="12" y="528" fill="#2a2a2a" rx="10"/><rect width="118" height="128" x="136" y="528" fill="#2a2a2a" rx="10"/><rect width="118" height="128" x="260" y="528" fill="#2a2a2a" rx="10"/></svg>