<svg xmlns="http://www.w3.org/2000/svg" width="390" height="844" viewBox="0 0 390 844"><defs><linearGradient id="g1" x1="0" x2="1" y1="0" y2="1"><stop offset="0%" stop-color="#1f1f1f"/><stop offset="100%" stop-color="#2a2a2a"/></linearGradient></defs><rect width="390" height="844" fill="url(#g1)"/><rect width="390" height="44" x="0" y="0" fill="rgba(0,0,0,0.3)"/><rect width="120" height="28" x="24" y="60" fill="#333" rx="6"/><rect width="80" height="16" x="24" y="96" fill="#2a2a2a" rx="4"/><rect width="342" height="44" x="24" y="128" fill="#2a2a2a" rx="12"/><circle cx="52" cy="150" r="10" fill="#444"/><rect width="100" height="12" x="72" y="144" fill="#444" rx="4"/><rect width="175" height="200" x="12" y="192" fill="#E5769720" rx="12"/><rect width="175" height="200" x="203" y="192" fill="#7c6af720" rx="12"/><rect width="175" height="200" x="12" y="404" fill="#6af7c820" rx="12"/><rect width="175" height="200" x="203" y="404" fill="#f7c86a20" rx="12"/><rect width="175" height="200" x="12" y="616" fill="#f76a6a20" rx="12"/><rect width="175" height="200" x="203" y="616" fill="#6ab5f720" rx="12"/><circle cx="195" cy="800" r="4" fill="#E57697"/></svg>