<svg xmlns="http://www.w3.org/2000/svg" width="390" height="844" viewBox="0 0 390 844"><defs><linearGradient id="g2" x1="0" x2=".5" y1="0" y2="1"><stop offset="0%" stop-color="#E57697"/><stop offset="60%" stop-color="#1f1f1f"/><stop offset="100%" stop-color="#181818"/></linearGradient></defs><rect width="390" height="844" fill="url(#g2)"/><rect width="390" height="420" x="0" y="0" fill="rgba(229,118,151,0.15)"/><circle cx="40" cy="60" r="18" fill="rgba(0,0,0,0.4)"/><rect width="14" height="2" x="33" y="57" fill="#fff" rx="1" transform="rotate(-45 40 58)"/><rect width="14" height="2" x="33" y="62" fill="#fff" rx="1" transform="rotate(45 40 63)"/><circle cx="350" cy="60" r="18" fill="rgba(0,0,0,0.4)"/><rect width="390" height="364" x="0" y="480" fill="#1f1f1f" rx="0"/><rect width="160" height="24" x="24" y="504" fill="#333" rx="6"/><rect width="100" height="16" x="24" y="536" fill="#2a2a2a" rx="4"/><rect width="60" height="26" x="24" y="572" fill="#E5769720" rx="13"/><rect width="80" height="26" x="92" y="572" fill="#333" rx="13"/><rect width="70" height="26" x="180" y="572" fill="#333" rx="13"/><rect width="342" height="52" x="24" y="740" fill="#E57697" rx="26"/><rect width="150" height="14" x="120" y="759" fill="rgba(255,255,255,0.8)" rx="4"/></svg>